<svg id="Logo_-_Dark_Grey" data-name="Logo - Dark Grey" xmlns="http://www.w3.org/2000/svg" width="307" height="58" viewBox="0 0 307 58">
  <text id="Travelbetter" transform="translate(182 47)" fill="#404040" font-size="43" font-family="PlayfairDisplay-Black, Playfair Display" font-weight="800"><tspan x="-124.313" y="0">Travelbetter</tspan></text>
  <path id="public_FILL0_wght400_GRAD0_opsz48" d="M26.008,48.016a21.43,21.43,0,0,1-8.583-1.733A21.974,21.974,0,0,1,5.733,34.591,21.43,21.43,0,0,1,4,26.008a21.43,21.43,0,0,1,1.733-8.583A21.974,21.974,0,0,1,17.425,5.733,21.43,21.43,0,0,1,26.008,4a21.43,21.43,0,0,1,8.583,1.733A21.974,21.974,0,0,1,46.283,17.425a21.43,21.43,0,0,1,1.733,8.583,21.43,21.43,0,0,1-1.733,8.583A21.974,21.974,0,0,1,34.591,46.283,21.43,21.43,0,0,1,26.008,48.016ZM23.642,44.66V40.148A4.245,4.245,0,0,1,20.4,38.718a4.789,4.789,0,0,1-1.32-3.356V32.941L7.8,21.662a15.46,15.46,0,0,0-.385,2.173,21.288,21.288,0,0,0-.11,2.173A18.418,18.418,0,0,0,11.95,38.5,17.739,17.739,0,0,0,23.642,44.66Zm16.176-5.942a18.168,18.168,0,0,0,2.118-2.806A19.607,19.607,0,0,0,43.477,32.8a17.616,17.616,0,0,0,.935-3.329,19.8,19.8,0,0,0,.3-3.466A18.864,18.864,0,0,0,33,8.457v.99a4.789,4.789,0,0,1-1.32,3.356,4.245,4.245,0,0,1-3.246,1.431H23.642v4.787a1.9,1.9,0,0,1-.743,1.541,2.586,2.586,0,0,1-1.678.605H16.655v4.842h14.2a1.93,1.93,0,0,1,1.541.715A2.48,2.48,0,0,1,33,28.374v6.988h2.366a4.46,4.46,0,0,1,2.806.935A4.654,4.654,0,0,1,39.818,38.718Z" transform="translate(-4 5)" fill="#404040"/>
</svg>
