<svg xmlns="http://www.w3.org/2000/svg" width="22.419" height="22.419" viewBox="0 0 22.419 22.419">
  <path id="radio_button_unchecked_FILL0_wght400_GRAD0_opsz48" d="M15.209,26.419a10.846,10.846,0,0,1-4.344-.883,11.294,11.294,0,0,1-5.983-5.983,11.2,11.2,0,0,1,0-8.715,11.2,11.2,0,0,1,2.41-3.559,11.491,11.491,0,0,1,3.573-2.4,11.2,11.2,0,0,1,8.715,0,11.192,11.192,0,0,1,5.955,5.955,11.2,11.2,0,0,1,0,8.715,11.491,11.491,0,0,1-2.4,3.573,11.2,11.2,0,0,1-3.559,2.41A10.915,10.915,0,0,1,15.209,26.419Zm0-1.681a9.168,9.168,0,0,0,6.754-2.788,9.205,9.205,0,0,0,2.774-6.74,9.192,9.192,0,0,0-2.774-6.754,9.192,9.192,0,0,0-6.754-2.774A9.205,9.205,0,0,0,8.47,8.456a9.169,9.169,0,0,0-2.788,6.754,9.182,9.182,0,0,0,2.788,6.74A9.182,9.182,0,0,0,15.209,24.737ZM15.209,15.209Z" transform="translate(-4 -4)" fill="#47f6eb"/>
</svg>
