<svg xmlns="http://www.w3.org/2000/svg" width="15.234" height="15.234" viewBox="0 0 15.234 15.234">
  <path id="settings_FILL0_wght400_GRAD0_opsz48" d="M9.865,19.234l-.381-2.4a5.1,5.1,0,0,1-.762-.362,5.233,5.233,0,0,1-.7-.476L5.771,17.025,4,13.9l2.057-1.5a2.264,2.264,0,0,1-.048-.39Q6,11.788,6,11.617t.01-.39a2.264,2.264,0,0,1,.048-.39L4,9.332,5.771,6.209,8.018,7.237a5.233,5.233,0,0,1,.7-.476,3.941,3.941,0,0,1,.762-.343L9.865,4h3.5l.381,2.4a6.174,6.174,0,0,1,.771.352,3.278,3.278,0,0,1,.7.486l2.247-1.028,1.771,3.123L17.177,10.8a2.683,2.683,0,0,1,.048.409q.01.219.01.409t-.01.4a2.651,2.651,0,0,1-.048.4L19.234,13.9l-1.771,3.123L15.216,16a6.317,6.317,0,0,1-.7.486,3.318,3.318,0,0,1-.771.352l-.381,2.4Zm1.752-5.141a2.471,2.471,0,0,0,2.475-2.475,2.471,2.471,0,0,0-2.475-2.475,2.471,2.471,0,0,0-2.475,2.475,2.471,2.471,0,0,0,2.475,2.475Zm0-1.143a1.333,1.333,0,1,1,.943-.39A1.284,1.284,0,0,1,11.617,12.95ZM11.617,11.617Zm-.838,6.474h1.676l.267-2.133a4.491,4.491,0,0,0,1.19-.476A4.88,4.88,0,0,0,14.93,14.7l2.018.876.762-1.371-1.79-1.314q.076-.324.124-.638a4.252,4.252,0,0,0,.048-.638,5.3,5.3,0,0,0-.038-.638,3.94,3.94,0,0,0-.133-.638l1.79-1.314-.762-1.371-2.018.876a4.245,4.245,0,0,0-.99-.828,3.212,3.212,0,0,0-1.219-.428l-.267-2.133H10.779l-.267,2.133A4.035,4.035,0,0,0,9.3,7.732a4.2,4.2,0,0,0-1,.8L6.285,7.656,5.523,9.027l1.79,1.314q-.076.324-.124.638a4.3,4.3,0,0,0,0,1.276q.048.314.124.638l-1.79,1.314.762,1.371L8.3,14.7a4.881,4.881,0,0,0,1.019.781,4.491,4.491,0,0,0,1.19.476Z" transform="translate(-4 -4)" opacity="0.76"/>
</svg>
