<svg xmlns="http://www.w3.org/2000/svg" width="41.965" height="41.965" viewBox="0 0 41.965 41.965">
  <path id="public_FILL0_wght400_GRAD0_opsz48" d="M24.983,45.965A20.432,20.432,0,0,1,16.8,44.313,20.95,20.95,0,0,1,5.652,33.166,20.432,20.432,0,0,1,4,24.983,20.432,20.432,0,0,1,5.652,16.8,20.95,20.95,0,0,1,16.8,5.652,20.432,20.432,0,0,1,24.983,4a20.432,20.432,0,0,1,8.183,1.652A20.95,20.95,0,0,1,44.313,16.8a20.432,20.432,0,0,1,1.652,8.183,20.432,20.432,0,0,1-1.652,8.183A20.95,20.95,0,0,1,33.166,44.313,20.432,20.432,0,0,1,24.983,45.965Zm-2.256-3.2v-4.3A4.048,4.048,0,0,1,19.632,37.1a4.566,4.566,0,0,1-1.259-3.2V31.592L7.62,20.839a14.74,14.74,0,0,0-.367,2.072,20.3,20.3,0,0,0-.1,2.072A17.56,17.56,0,0,0,11.58,36.89a16.913,16.913,0,0,0,11.147,5.875ZM38.149,37.1a17.322,17.322,0,0,0,2.02-2.675,18.694,18.694,0,0,0,1.469-2.964,16.8,16.8,0,0,0,.892-3.174,18.881,18.881,0,0,0,.289-3.3A17.985,17.985,0,0,0,31.645,8.249v.944a4.566,4.566,0,0,1-1.259,3.2,4.048,4.048,0,0,1-3.095,1.364H22.727v4.564a1.813,1.813,0,0,1-.708,1.469,2.466,2.466,0,0,1-1.6.577H16.065v4.616H29.6a1.84,1.84,0,0,1,1.469.682,2.365,2.365,0,0,1,.577,1.574V33.9H33.9a4.253,4.253,0,0,1,2.675.892A4.437,4.437,0,0,1,38.149,37.1Z" transform="translate(-4 -4)" fill="#404040"/>
</svg>
